# xmcd
#
# Track frame offsets:
#	225
#	16528
#	34010
#	50299
#	68322
#	83118
#	95989
#	109946
#	132320
#	136785
#	150803
#
# Disc length: 2096 seconds
#
# Revision: 0
# Processed by: cddbd v1.5.1PL0 Copyright (c) Steve Scherf et al.
# Submitted via: EasyCDDAExtractor 5.0.4.1
#
DISCID=7a082d0b
DTITLE=Dell Conner - Knee Deep In Blues
DYEAR=2002
DGENRE=Country
TTITLE0=Clitter Clatter
TTITLE1=Runnin' Shine
TTITLE2=Your Choice
TTITLE3=When She Whispers
TTITLE4=Afghan Blues
TTITLE5=Holes In My Shoes
TTITLE6=Good Ol' Days
TTITLE7=Harmonica Lewinski Blues
TTITLE8=Somewhere, Nowhere
TTITLE9=Knee Deep In Blues
TTITLE10=Bonus Track
EXTD=Dellconn Records\n
EXTT0=
EXTT1=
EXTT2=
EXTT3=
EXTT4=
EXTT5=
EXTT6=
EXTT7=
EXTT8=
EXTT9=
EXTT10=
PLAYORDER=
